<?xml version="1.0" encoding="UTF-8" standalone="no"?>
<!-- Created with Inkscape (http://www.inkscape.org/) -->

<svg
   xmlns:dc="http://purl.org/dc/elements/1.1/"
   xmlns:cc="http://creativecommons.org/ns#"
   xmlns:rdf="http://www.w3.org/1999/02/22-rdf-syntax-ns#"
   xmlns:svg="http://www.w3.org/2000/svg"
   xmlns="http://www.w3.org/2000/svg"
   xmlns:sodipodi="http://sodipodi.sourceforge.net/DTD/sodipodi-0.dtd"
   xmlns:inkscape="http://www.inkscape.org/namespaces/inkscape"
   width="142.62746mm"
   height="167.87473mm"
   viewBox="0 0 142.62745 167.87473"
   version="1.1"
   id="svg8"
   inkscape:version="0.92.3 (2405546, 2018-03-11)"
   sodipodi:docname="gitInsight.svg"
   inkscape:export-filename="C:\Ecole\HEIG-VD\GitInsights\front-end\GitInsights\src\assets\images\gitInsight.png"
   inkscape:export-xdpi="96"
   inkscape:export-ydpi="96">
  <defs
     id="defs2" />
  <sodipodi:namedview
     id="base"
     pagecolor="#ffffff"
     bordercolor="#666666"
     borderopacity="1.0"
     inkscape:pageopacity="0.0"
     inkscape:pageshadow="2"
     inkscape:zoom="0.5"
     inkscape:cx="517.91282"
     inkscape:cy="325.62618"
     inkscape:document-units="mm"
     inkscape:current-layer="g847"
     showgrid="false"
     inkscape:window-width="1920"
     inkscape:window-height="1027"
     inkscape:window-x="1912"
     inkscape:window-y="22"
     inkscape:window-maximized="1"
     fit-margin-top="3"
     fit-margin-left="3"
     fit-margin-right="3"
     fit-margin-bottom="3" />
  <metadata
     id="metadata5">
    <rdf:RDF>
      <cc:Work
         rdf:about="">
        <dc:format>image/svg+xml</dc:format>
        <dc:type
           rdf:resource="http://purl.org/dc/dcmitype/StillImage" />
        <dc:title></dc:title>
      </cc:Work>
    </rdf:RDF>
  </metadata>
  <g
     inkscape:groupmode="layer"
     id="layer4"
     inkscape:label="github"
     style="display:inline"
     transform="translate(-95.464241,-43.785608)">
    <path
       style="stroke-width:0.17702404"
       d="m 113.77718,109.30087 c -4.08865,3.09551 -7.45897,6.90936 -10.10691,11.44628 -3.47057,5.94712 -5.206029,12.44123 -5.206029,19.48254 0,8.45822 2.467979,16.06403 7.404669,22.81944 4.93614,6.75595 11.31267,11.43107 19.12952,14.02535 0.9099,0.16889 1.5835,0.05 2.02146,-0.35345 0.43813,-0.40396 0.65685,-0.90988 0.65685,-1.51566 0,-0.10108 -0.008,-1.01053 -0.0253,-2.72924 -0.0173,-1.71873 -0.0257,-3.21803 -0.0257,-4.49738 l -1.16265,0.2011 c -0.7412,0.13577 -1.6761,0.19301 -2.80499,0.17672 -1.12835,-0.0158 -2.29953,-0.13402 -3.51232,-0.35388 -1.21332,-0.21792 -2.34191,-0.72298 -3.38653,-1.5148 -1.04408,-0.79183 -1.7853,-1.82841 -2.22344,-3.10794 l -0.50536,-1.16309 c -0.33688,-0.7743 -0.86728,-1.6345 -1.59185,-2.57733 -0.72455,-0.94371 -1.45742,-1.58361 -2.19862,-1.92048 l -0.35389,-0.25334 c -0.23579,-0.16836 -0.45451,-0.37116 -0.65685,-0.60679 -0.20217,-0.23562 -0.35335,-0.47162 -0.45444,-0.70777 -0.10125,-0.23633 -0.0175,-0.42991 0.25247,-0.58198 0.26996,-0.15206 0.75769,-0.22591 1.46561,-0.22591 l 1.01073,0.15104 c 0.67393,0.13507 1.50725,0.53842 2.50159,1.21271 0.99382,0.67375 1.81081,1.54966 2.4511,2.62738 0.77537,1.38185 1.70981,2.43476 2.80541,3.15931 1.09472,0.72456 2.19822,1.08605 3.30992,1.08605 1.11171,0 2.07216,-0.084 2.88116,-0.2516 0.80811,-0.16852 1.56602,-0.42201 2.27394,-0.75871 0.30324,-2.25847 1.12901,-3.99366 2.47634,-5.20645 -1.92035,-0.20181 -3.64678,-0.5056 -5.18034,-0.90975 -1.53267,-0.40467 -3.11678,-1.06124 -4.75072,-1.97185 -1.63481,-0.90937 -2.99072,-2.03893 -4.06861,-3.38609 -1.07808,-1.34786 -1.96286,-3.1174 -2.65307,-5.30701 -0.69057,-2.19049 -1.03598,-4.71705 -1.03598,-7.58094 0,-4.07776 1.33097,-7.54779 3.99288,-10.41204 -0.84788,-2.08453 -1.0627,-4.3412 -0.64858,-6.76871 a 40.973509,40.973509 0 0 1 -2.08154,-11.72573 z m 62.2185,33.84263 a 40.973509,40.973509 0 0 1 -16.16305,5.63347 c -0.4486,0.89194 -0.948,1.67365 -1.49913,2.34401 -1.09595,1.33141 -2.4608,2.45165 -4.09473,3.36084 -1.63429,0.9099 -3.21891,1.56675 -4.75158,1.97142 -1.53339,0.40468 -3.25999,0.70889 -5.18034,0.91105 1.75147,1.51568 2.62738,3.90791 2.62738,7.17613 v 10.66364 c 0,0.60578 0.21081,1.11152 0.63248,1.51567 0.42114,0.40344 1.08631,0.52207 1.99622,0.35302 7.81791,-2.59394 14.19442,-7.26898 19.13039,-14.02493 4.3616,-5.96998 6.79509,-12.60467 7.30236,-19.90432 z"
       id="path891"
       inkscape:connector-curvature="0" />
    <g
       id="g895"
       transform="matrix(0.21015994,0,0,0.21015994,93.052359,93.065967)" />
    <g
       id="g897"
       transform="matrix(0.21015994,0,0,0.21015994,93.052359,93.065967)" />
    <g
       id="g899"
       transform="matrix(0.21015994,0,0,0.21015994,93.052359,93.065967)" />
    <g
       id="g901"
       transform="matrix(0.21015994,0,0,0.21015994,93.052359,93.065967)" />
    <g
       id="g903"
       transform="matrix(0.21015994,0,0,0.21015994,93.052359,93.065967)" />
    <g
       id="g905"
       transform="matrix(0.21015994,0,0,0.21015994,93.052359,93.065967)" />
    <g
       id="g907"
       transform="matrix(0.21015994,0,0,0.21015994,93.052359,93.065967)" />
    <g
       id="g909"
       transform="matrix(0.21015994,0,0,0.21015994,93.052359,93.065967)" />
    <g
       id="g911"
       transform="matrix(0.21015994,0,0,0.21015994,93.052359,93.065967)" />
    <g
       id="g913"
       transform="matrix(0.21015994,0,0,0.21015994,93.052359,93.065967)" />
    <g
       id="g915"
       transform="matrix(0.21015994,0,0,0.21015994,93.052359,93.065967)" />
    <g
       id="g917"
       transform="matrix(0.21015994,0,0,0.21015994,93.052359,93.065967)" />
    <g
       id="g919"
       transform="matrix(0.21015994,0,0,0.21015994,93.052359,93.065967)" />
    <g
       id="g921"
       transform="matrix(0.21015994,0,0,0.21015994,93.052359,93.065967)" />
    <g
       id="g923"
       transform="matrix(0.21015994,0,0,0.21015994,93.052359,93.065967)" />
  </g>
  <g
     style="display:none"
     inkscape:label="Copie de github"
     id="g962"
     inkscape:groupmode="layer"
     transform="translate(-95.464241,-43.785608)">
    <g
       transform="matrix(0.26458333,0,0,0.26458333,74.239611,64.728153)"
       id="g960">
      <g
         id="g928">
        <path
           inkscape:connector-curvature="0"
           d="M 409.132,114.573 C 389.524,80.977 362.927,54.379 329.334,34.773 295.736,15.166 259.057,5.365 219.271,5.365 c -39.781,0 -76.472,9.804 -110.063,29.408 -33.596,19.605 -60.192,46.204 -79.8,79.8 C 9.803,148.168 0,184.854 0,224.63 c 0,47.78 13.94,90.745 41.827,128.906 27.884,38.164 63.906,64.572 108.063,79.227 5.14,0.954 8.945,0.283 11.419,-1.996 2.475,-2.282 3.711,-5.14 3.711,-8.562 0,-0.571 -0.049,-5.708 -0.144,-15.417 -0.098,-9.709 -0.144,-18.179 -0.144,-25.406 l -6.567,1.136 c -4.187,0.767 -9.469,1.092 -15.846,1 -6.374,-0.089 -12.991,-0.757 -19.842,-1.999 -6.854,-1.231 -13.229,-4.086 -19.13,-8.559 -5.898,-4.473 -10.085,-10.328 -12.56,-17.556 l -2.855,-6.57 c -1.903,-4.374 -4.899,-9.233 -8.992,-14.559 -4.093,-5.331 -8.232,-8.945 -12.419,-10.848 l -1.999,-1.431 c -1.332,-0.951 -2.568,-2.098 -3.711,-3.429 -1.142,-1.331 -1.997,-2.663 -2.568,-3.997 -0.572,-1.335 -0.098,-2.43 1.427,-3.289 1.525,-0.859 4.281,-1.276 8.28,-1.276 l 5.708,0.853 c 3.807,0.763 8.516,3.042 14.133,6.851 5.614,3.806 10.229,8.754 13.846,14.842 4.38,7.806 9.657,13.754 15.846,17.847 6.184,4.093 12.419,6.136 18.699,6.136 6.28,0 11.704,-0.476 16.274,-1.423 4.565,-0.952 8.848,-2.383 12.847,-4.285 1.713,-12.758 6.377,-22.559 13.988,-29.41 -10.848,-1.14 -20.601,-2.857 -29.264,-5.14 -8.658,-2.286 -17.605,-5.996 -26.835,-11.14 -9.235,-5.137 -16.896,-11.516 -22.985,-19.126 -6.09,-7.614 -11.088,-17.61 -14.987,-29.979 -3.901,-12.374 -5.852,-26.648 -5.852,-42.826 0,-23.035 7.52,-42.637 22.557,-58.817 -7.044,-17.318 -6.379,-36.732 1.997,-58.24 5.52,-1.715 13.706,-0.428 24.554,3.853 10.85,4.283 18.794,7.952 23.84,10.994 5.046,3.041 9.089,5.618 12.135,7.708 17.705,-4.947 35.976,-7.421 54.818,-7.421 18.842,0 37.117,2.474 54.823,7.421 l 10.849,-6.849 c 7.419,-4.57 16.18,-8.758 26.262,-12.565 10.088,-3.805 17.802,-4.853 23.134,-3.138 8.562,21.509 9.325,40.922 2.279,58.24 15.036,16.18 22.559,35.787 22.559,58.817 0,16.178 -1.958,30.497 -5.853,42.966 -3.9,12.471 -8.941,22.457 -15.125,29.979 -6.191,7.521 -13.901,13.85 -23.131,18.986 -9.232,5.14 -18.182,8.85 -26.84,11.136 -8.662,2.286 -18.415,4.004 -29.263,5.146 9.894,8.562 14.842,22.077 14.842,40.539 v 60.237 c 0,3.422 1.19,6.279 3.572,8.562 2.379,2.279 6.136,2.95 11.276,1.995 44.163,-14.653 80.185,-41.062 108.068,-79.226 27.88,-38.161 41.825,-81.126 41.825,-128.906 -0.01,-39.771 -9.818,-76.454 -29.414,-110.049 z"
           id="path926" />
      </g>
      <g
         id="g930" />
      <g
         id="g932" />
      <g
         id="g934" />
      <g
         id="g936" />
      <g
         id="g938" />
      <g
         id="g940" />
      <g
         id="g942" />
      <g
         id="g944" />
      <g
         id="g946" />
      <g
         id="g948" />
      <g
         id="g950" />
      <g
         id="g952" />
      <g
         id="g954" />
      <g
         id="g956" />
      <g
         id="g958" />
    </g>
  </g>
  <g
     inkscape:label="Github-Zoom"
     id="g987"
     inkscape:groupmode="layer"
     style="display:inline"
     transform="translate(-95.464241,-43.785608)">
    <path
       style="fill-opacity:1;stroke-width:1.17998266"
       d="m 604.07031,202.49805 a 183.84777,183.84777 0 0 0 -159.50586,92.71484 c 12.56901,4.97641 21.80441,9.24829 27.6875,12.79492 5.95423,3.58834 10.72415,6.62953 14.31836,9.09571 20.89161,-5.83739 42.45034,-8.75782 64.6836,-8.75782 22.23322,0 43.79863,2.92043 64.6914,8.75782 l 12.80078,-8.08204 c 8.75433,-5.39252 19.09169,-10.33397 30.98829,-14.82617 11.90365,-4.48983 21.00716,-5.72679 27.29882,-3.70312 10.10302,25.38024 11.00359,48.28771 2.68946,68.72265 17.74219,19.09214 26.61914,42.22736 26.61914,69.40235 0,19.08979 -2.31023,35.98601 -6.90625,50.69922 -4.60196,14.71559 -10.55068,26.49915 -17.84766,35.375 -7.3053,8.87463 -16.40368,16.34198 -27.29492,22.40234 -10.89362,6.06512 -21.45363,10.44318 -31.66992,13.14063 -10.22102,2.69741 -21.73079,4.72475 -34.53125,6.07226 4.34798,3.76263 7.88432,8.33901 10.61328,13.72266 A 183.84777,183.84777 0 0 0 787.91992,386.3457 183.84777,183.84777 0 0 0 759.26953,287.87891 c -17.85032,-24.16129 -39.39732,-44.62442 -64.63867,-61.39258 a 183.84777,183.84777 0 0 0 -90.56055,-23.98828 z"
       transform="scale(0.26458333)"
       id="path951"
       inkscape:connector-curvature="0" />
    <g
       style="fill-opacity:1"
       id="g955"
       transform="matrix(0.31220375,0,0,0.31220375,77.396115,46.840682)" />
    <g
       style="fill-opacity:1"
       id="g957"
       transform="matrix(0.31220375,0,0,0.31220375,77.396115,46.840682)" />
    <g
       style="fill-opacity:1"
       id="g959"
       transform="matrix(0.31220375,0,0,0.31220375,77.396115,46.840682)" />
    <g
       style="fill-opacity:1"
       id="g961"
       transform="matrix(0.31220375,0,0,0.31220375,77.396115,46.840682)" />
    <g
       style="fill-opacity:1"
       id="g963"
       transform="matrix(0.31220375,0,0,0.31220375,77.396115,46.840682)" />
    <g
       style="fill-opacity:1"
       id="g965"
       transform="matrix(0.31220375,0,0,0.31220375,77.396115,46.840682)" />
    <g
       style="fill-opacity:1"
       id="g967"
       transform="matrix(0.31220375,0,0,0.31220375,77.396115,46.840682)" />
    <g
       style="fill-opacity:1"
       id="g969"
       transform="matrix(0.31220375,0,0,0.31220375,77.396115,46.840682)" />
    <g
       style="fill-opacity:1"
       id="g971"
       transform="matrix(0.31220375,0,0,0.31220375,77.396115,46.840682)" />
    <g
       style="fill-opacity:1"
       id="g973"
       transform="matrix(0.31220375,0,0,0.31220375,77.396115,46.840682)" />
    <g
       style="fill-opacity:1"
       id="g975"
       transform="matrix(0.31220375,0,0,0.31220375,77.396115,46.840682)" />
    <g
       style="fill-opacity:1"
       id="g977"
       transform="matrix(0.31220375,0,0,0.31220375,77.396115,46.840682)" />
    <g
       style="fill-opacity:1"
       id="g979"
       transform="matrix(0.31220375,0,0,0.31220375,77.396115,46.840682)" />
    <g
       style="fill-opacity:1"
       id="g981"
       transform="matrix(0.31220375,0,0,0.31220375,77.396115,46.840682)" />
    <g
       style="fill-opacity:1"
       id="g983"
       transform="matrix(0.31220375,0,0,0.31220375,77.396115,46.840682)" />
    <path
       id="path924"
       transform="scale(0.26458333)"
       d="m 604.07031,202.49805 a 183.84777,183.84777 0 0 0 -159.50586,92.71484 c 12.56901,4.97641 21.80441,9.24829 27.6875,12.79492 5.95423,3.58834 10.72415,6.62953 14.31836,9.09571 20.89161,-5.83739 42.45034,-8.75782 64.6836,-8.75782 22.23322,0 43.79863,2.92043 64.6914,8.75782 l 12.80078,-8.08204 c 8.75433,-5.39252 19.09169,-10.33397 30.98829,-14.82617 11.90365,-4.48983 21.00716,-5.72679 27.29882,-3.70312 10.10302,25.38024 11.00359,48.28771 2.68946,68.72265 17.74219,19.09214 26.61914,42.22736 26.61914,69.40235 0,19.08979 -2.31023,35.98601 -6.90625,50.69922 -4.60196,14.71559 -10.55068,26.49915 -17.84766,35.375 -7.3053,8.87463 -16.40368,16.34198 -27.29492,22.40234 -10.89362,6.06512 -21.45363,10.44318 -31.66992,13.14063 -10.22102,2.69741 -21.73079,4.72475 -34.53125,6.07226 4.34798,3.76263 7.88432,8.33901 10.61328,13.72266 A 183.84777,183.84777 0 0 0 787.91992,386.3457 183.84777,183.84777 0 0 0 759.26953,287.87891 c -17.85032,-24.16129 -39.39732,-44.62442 -64.63867,-61.39258 a 183.84777,183.84777 0 0 0 -90.56055,-23.98828 z"
       style="fill-opacity:1;stroke-width:1.17998266"
       inkscape:connector-curvature="0" />
  </g>
  <g
     inkscape:label="lens"
     inkscape:groupmode="layer"
     id="layer1"
     transform="translate(-95.464241,-40.785608)"
     style="display:inline">
    <g
       id="g847"
       transform="translate(52.575177,31.63958)">
      <path
         inkscape:connector-curvature="0"
         style="opacity:1;fill:#686868;fill-opacity:1;stroke:none;stroke-width:0.5;stroke-linecap:square;stroke-linejoin:miter;stroke-miterlimit:4;stroke-dasharray:none;stroke-opacity:1"
         d="M 106.7785,12.146028 A 56.129462,56.129462 0 0 0 50.648586,68.275419 56.129462,56.129462 0 0 0 106.7785,124.40481 56.129462,56.129462 0 0 0 162.90788,68.275419 56.129462,56.129462 0 0 0 106.7785,12.146028 Z m 0,10.583334 A 45.546131,45.546131 0 0 1 152.32455,68.275419 45.546131,45.546131 0 0 1 106.7785,113.82148 45.546131,45.546131 0 0 1 61.231919,68.275419 45.546131,45.546131 0 0 1 106.7785,22.729362 Z"
         id="path815" />
      <g
         style="display:none"
         inkscape:label="lens-complete-copy"
         id="layer3">
        <path
           inkscape:connector-curvature="0"
           transform="scale(0.26458333)"
           style="opacity:1;fill:#686868;fill-opacity:1;stroke:none;stroke-width:1.88976383;stroke-linecap:square;stroke-linejoin:miter;stroke-miterlimit:4;stroke-dasharray:none;stroke-opacity:1"
           d="M 403.57227,45.90625 A 212.14285,212.14285 0 0 0 191.42773,258.04883 212.14285,212.14285 0 0 0 403.57227,470.19141 212.14285,212.14285 0 0 0 615.71484,258.04883 212.14285,212.14285 0 0 0 403.57227,45.90625 Z m 0,40 A 172.14286,172.14286 0 0 1 575.71484,258.04883 172.14286,172.14286 0 0 1 403.57227,430.19141 172.14286,172.14286 0 0 1 231.42773,258.04883 172.14286,172.14286 0 0 1 403.57227,85.90625 Z"
           id="path826" />
        <rect
           style="opacity:1;fill:#686868;fill-opacity:1;stroke:none;stroke-width:0.5;stroke-linecap:square;stroke-linejoin:miter;stroke-miterlimit:4;stroke-dasharray:none;stroke-opacity:1"
           id="rect828"
           width="101.29762"
           height="12.095239"
           x="245.43323"
           y="-6.535192"
           rx="4"
           ry="4"
           transform="rotate(56.800429,89.698069,-48.499999)" />
      </g>
      <g
         style="display:none"
         inkscape:label="inner-lens"
         id="layer2">
        <circle
           cy="165.2753"
           cx="106.77828"
           id="circle821"
           style="opacity:1;fill:#a8a0a0;fill-opacity:1;stroke:none;stroke-width:0.40572393;stroke-linecap:square;stroke-linejoin:miter;stroke-miterlimit:4;stroke-dasharray:none;stroke-opacity:1"
           r="45.546131"
           transform="translate(0,-96.999999)" />
      </g>
      <rect
         id="rect152"
         width="20.21517"
         height="77.453957"
         x="35.240726"
         y="162.71053"
         rx="3.9999974"
         ry="3.9999974"
         style="fill:#686868;fill-opacity:1;stroke-width:0.26458332"
         transform="rotate(-35.317004)" />
    </g>
  </g>
  <g
     inkscape:groupmode="layer"
     id="layer5"
     inkscape:label="zoomZone"
     style="display:inline"
     transform="translate(-95.464241,-43.785608)" />
</svg>
