<?xml version="1.0" encoding="UTF-8" standalone="no"?>
<!-- Created with Inkscape (http://www.inkscape.org/) -->

<svg
   xmlns:dc="http://purl.org/dc/elements/1.1/"
   xmlns:cc="http://creativecommons.org/ns#"
   xmlns:rdf="http://www.w3.org/1999/02/22-rdf-syntax-ns#"
   xmlns:svg="http://www.w3.org/2000/svg"
   xmlns="http://www.w3.org/2000/svg"
   xmlns:sodipodi="http://sodipodi.sourceforge.net/DTD/sodipodi-0.dtd"
   xmlns:inkscape="http://www.inkscape.org/namespaces/inkscape"
   width="200mm"
   height="200mm"
   viewBox="0 0 200 200"
   version="1.1"
   id="svg8"
   inkscape:version="0.92.3 (2405546, 2018-03-11)"
   sodipodi:docname="Logo-lens.svg">
  <defs
     id="defs2" />
  <sodipodi:namedview
     id="base"
     pagecolor="#ffffff"
     bordercolor="#666666"
     borderopacity="1.0"
     inkscape:pageopacity="0.0"
     inkscape:pageshadow="2"
     inkscape:zoom="0.7"
     inkscape:cx="393.73119"
     inkscape:cy="431.14739"
     inkscape:document-units="mm"
     inkscape:current-layer="layer1"
     showgrid="false"
     inkscape:window-width="1920"
     inkscape:window-height="1017"
     inkscape:window-x="-8"
     inkscape:window-y="32"
     inkscape:window-maximized="1" />
  <metadata
     id="metadata5">
    <rdf:RDF>
      <cc:Work
         rdf:about="">
        <dc:format>image/svg+xml</dc:format>
        <dc:type
           rdf:resource="http://purl.org/dc/dcmitype/StillImage" />
        <dc:title></dc:title>
      </cc:Work>
    </rdf:RDF>
  </metadata>
  <g
     inkscape:label="Calque 1"
     inkscape:groupmode="layer"
     id="layer1"
     transform="translate(0,-97)">
    <path
       style="opacity:1;fill:#686868;fill-opacity:1;stroke:none;stroke-width:1.88976383;stroke-linecap:square;stroke-linejoin:miter;stroke-miterlimit:4;stroke-dasharray:none;stroke-opacity:1"
       d="M 403.57227 45.90625 A 212.14285 212.14285 0 0 0 191.42773 258.04883 A 212.14285 212.14285 0 0 0 403.57227 470.19141 A 212.14285 212.14285 0 0 0 615.71484 258.04883 A 212.14285 212.14285 0 0 0 403.57227 45.90625 z M 403.57227 85.90625 A 172.14286 172.14286 0 0 1 575.71484 258.04883 A 172.14286 172.14286 0 0 1 403.57227 430.19141 A 172.14286 172.14286 0 0 1 231.42773 258.04883 A 172.14286 172.14286 0 0 1 403.57227 85.90625 z "
       transform="matrix(0.26458333,0,0,0.26458333,0,97)"
       id="path815" />
    <rect
       style="opacity:1;fill:#686868;fill-opacity:1;stroke:none;stroke-width:0.5;stroke-linecap:square;stroke-linejoin:miter;stroke-miterlimit:4;stroke-dasharray:none;stroke-opacity:1"
       id="rect819"
       width="101.29762"
       height="12.095239"
       x="245.43323"
       y="-6.535192"
       rx="4"
       ry="4"
       transform="rotate(56.80043)" />
  </g>
  <g
     inkscape:groupmode="layer"
     id="layer3"
     inkscape:label="lens-complete-copy"
     style="display:none">
    <path
       id="path826"
       d="M 403.57227,45.90625 A 212.14285,212.14285 0 0 0 191.42773,258.04883 212.14285,212.14285 0 0 0 403.57227,470.19141 212.14285,212.14285 0 0 0 615.71484,258.04883 212.14285,212.14285 0 0 0 403.57227,45.90625 Z m 0,40 A 172.14286,172.14286 0 0 1 575.71484,258.04883 172.14286,172.14286 0 0 1 403.57227,430.19141 172.14286,172.14286 0 0 1 231.42773,258.04883 172.14286,172.14286 0 0 1 403.57227,85.90625 Z"
       style="opacity:1;fill:#686868;fill-opacity:1;stroke:none;stroke-width:1.88976383;stroke-linecap:square;stroke-linejoin:miter;stroke-miterlimit:4;stroke-dasharray:none;stroke-opacity:1"
       transform="scale(0.26458333)"
       inkscape:connector-curvature="0" />
    <rect
       transform="rotate(56.800429,89.698069,-48.499999)"
       ry="4"
       rx="4"
       y="-6.535192"
       x="245.43323"
       height="12.095239"
       width="101.29762"
       id="rect828"
       style="opacity:1;fill:#686868;fill-opacity:1;stroke:none;stroke-width:0.5;stroke-linecap:square;stroke-linejoin:miter;stroke-miterlimit:4;stroke-dasharray:none;stroke-opacity:1" />
  </g>
  <g
     inkscape:groupmode="layer"
     id="layer2"
     inkscape:label="inner-lens"
     style="display:none">
    <circle
       transform="translate(0,-96.999999)"
       r="45.546131"
       style="opacity:1;fill:#a8a0a0;fill-opacity:1;stroke:none;stroke-width:0.40572393;stroke-linecap:square;stroke-linejoin:miter;stroke-miterlimit:4;stroke-dasharray:none;stroke-opacity:1"
       id="circle821"
       cx="106.77828"
       cy="165.2753" />
  </g>
</svg>
